<svg xmlns="http://www.w3.org/2000/svg" width="16" height="16" viewBox="0 0 16 16" fill="none">
                                                <circle cx="8" cy="8" r="8" fill="#263671"></circle>
                                                <path d="M8.85535 12H7.14465V6.26676H8.85535V12ZM8 5.6775C7.81132 5.6775 7.64151 5.64035 7.49057 5.56603C7.33962 5.49171 7.22013 5.39084 7.13208 5.26344C7.04403 5.13603 7 4.99447 7 4.83875C7 4.68303 7.04403 4.54147 7.13208 4.41407C7.22013 4.28666 7.33962 4.1858 7.49057 4.11148C7.64151 4.03716 7.81132 4 8 4C8.18868 4 8.35849 4.03716 8.50943 4.11148C8.66457 4.1858 8.78407 4.28666 8.86792 4.41407C8.95597 4.54147 9 4.68303 9 4.83875C9 4.99447 8.95597 5.13603 8.86792 5.26344C8.78407 5.39084 8.66457 5.49171 8.50943 5.56603C8.35849 5.64035 8.18868 5.6775 8 5.6775Z" fill="#20DEB2"></path>
                                            </svg>