<svg class="svg_bg" xmlns="http://www.w3.org/2000/svg" width="724" height="442" viewBox="0 0 724 442" fill="none">
                            <path d="M256.559 36.937C262.372 28.0776 266.677 21.5194 270.633 16.5685C274.571 11.642 278.097 8.39504 282.306 6.12247C286.515 3.84991 291.164 2.68307 297.443 2.09376C303.753 1.50152 311.597 1.5 322.193 1.5H686.844C697.506 1.5 705.33 1.50399 710.96 2.33683C716.587 3.16918 719.545 4.76499 721.042 7.53643C722.538 10.3079 722.249 13.657 719.858 18.818C717.466 23.982 713.178 30.5257 707.329 39.4401L467.441 405.063C461.628 413.922 457.323 420.481 453.367 425.431C449.429 430.358 445.903 433.605 441.694 435.878C437.485 438.15 432.836 439.317 426.557 439.906C420.247 440.498 412.403 440.5 401.807 440.5H37.1555C26.4937 440.5 18.6699 440.496 13.04 439.663C7.4134 438.831 4.45484 437.235 2.95849 434.464C1.46214 431.692 1.75087 428.343 4.14154 423.182C6.53359 418.018 10.8222 411.474 16.671 402.56L256.559 36.937Z" fill="#0D142C" stroke="url(#paint0_linear_18_957)" stroke-width="3"></path>
                            <defs>
                                <linearGradient id="paint0_linear_18_957" x1="149" y1="427.5" x2="723" y2="8.4996" gradientUnits="userSpaceOnUse">
                                    <stop stop-color="#204FE3"></stop>
                                    <stop offset="0.280507" stop-color="#000518"></stop>
                                    <stop offset="0.707974" stop-color="#000518"></stop>
                                    <stop offset="1" stop-color="#229ED9"></stop>
                                </linearGradient>
                            </defs>
                        </svg>