<svg width="33" height="33" viewBox="0 0 33 33" fill="none" xmlns="http://www.w3.org/2000/svg">
<rect y="0.0078125" width="32.9921" height="32.9921" rx="16.4961" fill="#20306C"/>
<path d="M11.5099 8.51992C12.0334 8.66268 12.5568 8.75785 13.0803 8.90061C13.6037 9.04337 14.1271 9.13854 14.6506 9.2813C14.7934 9.32889 14.8409 9.2813 14.8885 9.13854C15.0789 8.32958 15.2692 7.5682 15.4596 6.75924C15.5071 6.61648 15.5547 6.56889 15.6975 6.61648C16.1734 6.75924 16.6016 6.85441 17.0775 6.94958C17.2202 6.99717 17.2202 7.04475 17.1727 7.13992C16.9823 7.9013 16.792 8.71027 16.6016 9.47165C16.6016 9.51923 16.6016 9.56682 16.554 9.66199C16.9347 9.75716 17.363 9.85233 17.7437 9.94751C17.7913 9.94751 17.8389 9.85233 17.8865 9.80475C18.0292 9.18613 18.172 8.61509 18.3623 7.99647C18.4099 7.80613 18.4575 7.61579 18.5051 7.42544C18.5051 7.33027 18.5527 7.28268 18.6478 7.33027C19.1237 7.47303 19.5996 7.5682 20.123 7.71096C20.1706 7.71096 20.1706 7.75854 20.2182 7.75854C20.0754 8.37716 19.9327 8.9482 19.7899 9.51923C19.7423 9.75716 19.6947 9.99509 19.5996 10.233C19.552 10.3758 19.5996 10.4234 19.7423 10.471C20.2658 10.7089 20.7892 10.9468 21.3127 11.1847C21.7885 11.4703 22.2168 11.851 22.5499 12.3268C22.9782 13.0406 23.0258 13.802 22.8354 14.5634C22.6927 15.0868 22.5023 15.5627 22.1216 15.9434C21.8361 16.2289 21.4554 16.4192 21.0747 16.562C21.0271 16.562 20.9795 16.6096 20.8844 16.6096C21.0747 16.7523 21.2651 16.8475 21.4554 16.9903C22.0264 17.4185 22.4071 17.942 22.5975 18.6082C22.6926 19.1316 22.6451 19.7027 22.5023 20.2261C22.312 20.8923 22.074 21.4634 21.6458 21.9868C21.1223 22.6054 20.4561 22.9385 19.6947 23.0337C18.6954 23.1764 17.7437 23.0813 16.792 22.9385C16.6492 22.8909 16.554 22.9385 16.5065 23.0813C16.3161 23.8427 16.1258 24.6516 15.9354 25.413C15.8878 25.6033 15.8878 25.6509 15.6499 25.5558C15.2216 25.4606 14.7458 25.3178 14.3175 25.2227C14.1747 25.1751 14.1747 25.1275 14.2223 25.0323C14.4127 24.2233 14.603 23.4144 14.8409 22.653C14.8409 22.5578 14.8885 22.5102 14.7934 22.4627C14.4127 22.3675 14.032 22.2723 13.6037 22.1771C13.5085 22.6054 13.3658 23.0337 13.2706 23.462C13.1754 23.8902 13.0327 24.3185 12.9375 24.7468C12.8899 24.842 12.8899 24.8896 12.7472 24.842C12.2713 24.6992 11.7954 24.604 11.3196 24.5089C11.1768 24.4613 11.1768 24.4137 11.2244 24.3185C11.4147 23.5096 11.6051 22.7006 11.843 21.9392C11.843 21.8916 11.8906 21.844 11.8906 21.7489C10.7961 21.4633 9.70164 21.1778 8.55957 20.8923C8.65474 20.702 8.70233 20.5592 8.7975 20.3689C8.98785 19.9406 9.17819 19.5123 9.32095 19.1316C9.36853 18.9889 9.41612 18.9889 9.55888 18.9889C9.89198 19.084 10.2727 19.1792 10.6058 19.2268C10.9865 19.322 11.272 19.1316 11.3196 18.7985C11.9382 16.3716 12.5568 13.9447 13.1278 11.4703C13.223 11.0896 12.9851 10.6613 12.5568 10.5185C12.1285 10.3758 11.7003 10.2806 11.3196 10.1854C11.2244 10.1854 11.1768 10.1379 11.2244 10.0427C11.3672 9.51923 11.5099 8.9482 11.6527 8.42475C11.4623 8.56751 11.4623 8.56751 11.5099 8.51992ZM13.9368 20.2737C13.9844 20.2737 14.032 20.3213 14.032 20.3213C14.7934 20.5116 15.6023 20.7496 16.4113 20.7971C16.9823 20.8447 17.5058 20.8447 18.0292 20.6544C18.9333 20.3689 19.314 19.1792 18.7906 18.4178C18.5527 18.0371 18.172 17.7992 17.7913 17.5613C16.9347 17.0854 15.9354 16.8951 14.9837 16.7047C14.8409 16.6572 14.8409 16.7047 14.7934 16.8475C14.6982 17.3234 14.5554 17.7516 14.4602 18.2275C14.2699 18.8937 14.1271 19.5599 13.9368 20.2737ZM17.934 15.4199C18.0292 15.4199 18.2671 15.3723 18.4575 15.3247C19.3616 15.1344 19.8375 14.0875 19.3616 13.2785C19.1237 12.8503 18.6954 12.5647 18.2671 12.3744C17.6009 12.0889 16.9347 11.9461 16.2209 11.7558C16.0782 11.7082 16.0306 11.7558 15.983 11.8985C15.7451 12.8978 15.5071 13.8496 15.2216 14.8489C15.174 14.9441 15.2216 14.9916 15.3168 15.0392C15.5071 15.0868 15.6499 15.1344 15.8402 15.182C16.554 15.2772 17.1727 15.4199 17.934 15.4199Z" fill="white"/>
</svg>
