<svg width="25" height="26" viewBox="0 0 25 26" fill="none" xmlns="http://www.w3.org/2000/svg">
<rect y="0.50293" width="25" height="25" rx="12.5" fill="#2B3A52"/>
<path d="M8.72197 6.95294C9.11861 7.06112 9.51526 7.13323 9.9119 7.24141C10.3085 7.34959 10.7052 7.4217 11.1018 7.52988C11.21 7.56594 11.2461 7.52988 11.2821 7.4217C11.4264 6.8087 11.5706 6.23177 11.7148 5.61877C11.7509 5.51059 11.787 5.47453 11.8951 5.51059C12.2557 5.61877 12.5802 5.69089 12.9408 5.763C13.049 5.79906 13.049 5.83512 13.013 5.90724C12.8687 6.48418 12.7245 7.09717 12.5802 7.67411C12.5802 7.71017 12.5802 7.74623 12.5442 7.81835C12.8327 7.89047 13.1572 7.96258 13.4457 8.0347C13.4817 8.0347 13.5178 7.96258 13.5538 7.92652C13.662 7.45776 13.7702 7.02506 13.9144 6.55629C13.9505 6.41206 13.9865 6.26782 14.0226 6.12359C14.0226 6.05147 14.0587 6.01541 14.1308 6.05147C14.4914 6.15965 14.8519 6.23177 15.2486 6.33994C15.2846 6.33994 15.2846 6.376 15.3207 6.376C15.2125 6.84476 15.1044 7.27747 14.9962 7.71017C14.9601 7.89047 14.9241 8.07076 14.8519 8.25105C14.8159 8.35923 14.8519 8.39529 14.9601 8.43135C15.3568 8.61164 15.7534 8.79193 16.1501 8.97223C16.5106 9.18858 16.8352 9.47705 17.0876 9.83764C17.4121 10.3785 17.4482 10.9555 17.3039 11.5324C17.1958 11.929 17.0515 12.2896 16.7631 12.5781C16.5467 12.7944 16.2582 12.9387 15.9698 13.0469C15.9337 13.0469 15.8976 13.0829 15.8255 13.0829C15.9698 13.1911 16.114 13.2632 16.2582 13.3714C16.6909 13.6959 16.9794 14.0926 17.1236 14.5974C17.1958 14.994 17.1597 15.4267 17.0515 15.8234C16.9073 16.3282 16.727 16.7609 16.4025 17.1575C16.0058 17.6263 15.501 17.8787 14.9241 17.9508C14.1668 18.059 13.4457 17.9869 12.7245 17.8787C12.6163 17.8427 12.5442 17.8787 12.5081 17.9869C12.3639 18.5638 12.2197 19.1768 12.0754 19.7538C12.0394 19.898 12.0394 19.9341 11.8591 19.862C11.5345 19.7898 11.174 19.6817 10.8494 19.6095C10.7413 19.5735 10.7413 19.5374 10.7773 19.4653C10.9215 18.8523 11.0658 18.2393 11.2461 17.6624C11.2461 17.5903 11.2821 17.5542 11.21 17.5181C10.9215 17.446 10.6331 17.3739 10.3085 17.3018C10.2364 17.6263 10.1283 17.9508 10.0561 18.2754C9.98402 18.5999 9.87585 18.9244 9.80373 19.249C9.76767 19.3211 9.76767 19.3571 9.65949 19.3211C9.29891 19.2129 8.93832 19.1408 8.57773 19.0687C8.46956 19.0326 8.46956 18.9965 8.50561 18.9244C8.64985 18.3114 8.79408 17.6984 8.97438 17.1215C8.97438 17.0854 9.01044 17.0494 9.01044 16.9773C8.18109 16.7609 7.35174 16.5446 6.48633 16.3282C6.55845 16.184 6.5945 16.0758 6.66662 15.9316C6.81086 15.607 6.95509 15.2825 7.06327 14.994C7.09933 14.8859 7.13538 14.8859 7.24356 14.8859C7.49597 14.958 7.78444 15.0301 8.03685 15.0661C8.32532 15.1383 8.54167 14.994 8.57773 14.7416C9.04649 12.9026 9.51526 11.0636 9.94796 9.18858C10.0201 8.90011 9.83979 8.57558 9.51526 8.4674C9.19073 8.35923 8.8662 8.28711 8.57773 8.21499C8.50561 8.21499 8.46956 8.17894 8.50561 8.10682C8.61379 7.71017 8.72197 7.27747 8.83014 6.88082C8.68591 6.989 8.68591 6.989 8.72197 6.95294ZM10.561 15.8594C10.597 15.8594 10.6331 15.8955 10.6331 15.8955C11.21 16.0397 11.823 16.22 12.436 16.2561C12.8687 16.2921 13.2654 16.2921 13.662 16.1479C14.3471 15.9316 14.6356 15.0301 14.2389 14.4531C14.0587 14.1647 13.7702 13.9844 13.4817 13.8041C12.8327 13.4435 12.0754 13.2993 11.3543 13.155C11.2461 13.119 11.2461 13.155 11.21 13.2632C11.1379 13.6238 11.0297 13.9483 10.9576 14.3089C10.8134 14.8137 10.7052 15.3186 10.561 15.8594ZM13.5899 12.1815C13.662 12.1815 13.8423 12.1454 13.9865 12.1093C14.6717 11.9651 15.0322 11.1718 14.6717 10.5588C14.4914 10.2343 14.1668 10.0179 13.8423 9.87369C13.3375 9.65734 12.8327 9.54917 12.2918 9.40493C12.1836 9.36887 12.1475 9.40493 12.1115 9.51311C11.9312 10.2703 11.7509 10.9915 11.5345 11.7487C11.4985 11.8209 11.5345 11.8569 11.6067 11.893C11.7509 11.929 11.8591 11.9651 12.0033 12.0012C12.5442 12.0733 13.013 12.1815 13.5899 12.1815Z" fill="white"/>
</svg>
