<svg width="159" height="159" viewBox="0 0 159 159" fill="none" xmlns="http://www.w3.org/2000/svg">
<circle cx="79.2416" cy="79.2417" r="50.381" fill="#1A254B"/>
<circle cx="79.2417" cy="79.2417" r="67.4456" transform="rotate(-10.1738 79.2417 79.2417)" stroke="url(#paint0_linear_24_2672)" stroke-width="1.62519"/>
<circle cx="78.4291" cy="11.7961" r="4.87558" fill="#0D142C" stroke="#132E8F" stroke-width="1.62519"/>
<circle cx="78.4291" cy="146.687" r="4.87558" fill="#0D142C" stroke="#1BB596" stroke-width="1.62519"/>
<path d="M65.489 55.4886C67.1251 55.9349 68.7612 56.2323 70.3973 56.6785C72.0334 57.1247 73.6695 57.4222 75.3056 57.8684C75.7518 58.0172 75.9006 57.8684 76.0493 57.4222C76.6443 54.8937 77.2392 52.5139 77.8342 49.9854C77.9829 49.5392 78.1316 49.3904 78.5778 49.5392C80.0652 49.9854 81.4038 50.2829 82.8912 50.5803C83.3374 50.7291 83.3374 50.8778 83.1887 51.1753C82.5937 53.5551 81.9988 56.0836 81.4038 58.4634C81.4038 58.6121 81.4038 58.7608 81.2551 59.0583C82.445 59.3558 83.7836 59.6533 84.9735 59.9507C85.1223 59.9507 85.271 59.6533 85.4197 59.5045C85.8659 57.571 86.3121 55.7861 86.9071 53.8525C87.0558 53.2576 87.2046 52.6626 87.3533 52.0677C87.3533 51.7702 87.502 51.6215 87.7995 51.7702C89.2869 52.2164 90.7742 52.5139 92.4104 52.9601C92.5591 52.9601 92.5591 53.1089 92.7078 53.1089C92.2616 55.0424 91.8154 56.8273 91.3692 58.6121C91.2205 59.3558 91.0717 60.0995 90.7742 60.8432C90.6255 61.2894 90.7742 61.4381 91.2205 61.5868C92.8566 62.3305 94.4927 63.0742 96.1288 63.8179C97.6161 64.7103 98.9548 65.9002 99.9959 67.3876C101.335 69.6186 101.483 71.9984 100.888 74.3782C100.442 76.0143 99.8472 77.5017 98.6573 78.6916C97.7649 79.584 96.575 80.1789 95.3851 80.6251C95.2363 80.6251 95.0876 80.7739 94.7901 80.7739C95.3851 81.2201 95.98 81.5176 96.575 81.9638C98.3598 83.3024 99.5497 84.9385 100.145 87.0208C100.442 88.6569 100.293 90.4418 99.8472 92.0779C99.2522 94.1602 98.5086 95.945 97.1699 97.5811C95.5338 99.5147 93.4515 100.556 91.0717 100.853C87.9482 101.3 84.9735 101.002 81.9988 100.556C81.5526 100.407 81.2551 100.556 81.1064 101.002C80.5114 103.382 79.9165 105.91 79.3215 108.29C79.1728 108.885 79.1728 109.034 78.4291 108.736C77.0905 108.439 75.6031 107.993 74.2645 107.695C73.8183 107.546 73.8183 107.398 73.967 107.1C74.5619 104.572 75.1569 102.043 75.9006 99.6634C75.9006 99.366 76.0493 99.2172 75.7518 99.0685C74.5619 98.771 73.3721 98.4735 72.0334 98.1761C71.7359 99.5147 71.2897 100.853 70.9923 102.192C70.6948 103.531 70.2486 104.869 69.9511 106.208C69.8024 106.505 69.8024 106.654 69.3562 106.505C67.8688 106.059 66.3814 105.762 64.8941 105.464C64.4479 105.315 64.4479 105.167 64.5966 104.869C65.1915 102.341 65.7865 99.8122 66.5302 97.4324C66.5302 97.2837 66.6789 97.1349 66.6789 96.8374C63.258 95.945 59.837 95.0526 56.2673 94.1602C56.5648 93.5652 56.7135 93.119 57.011 92.5241C57.606 91.1854 58.2009 89.8468 58.6471 88.6569C58.7959 88.2107 58.9446 88.2107 59.3908 88.2107C60.432 88.5082 61.6219 88.8057 62.663 88.9544C63.8529 89.2519 64.7453 88.6569 64.8941 87.6158C66.8276 80.0302 68.7612 72.4446 70.5461 64.7103C70.8435 63.5204 70.0998 62.1818 68.7612 61.7356C67.4226 61.2894 66.084 60.9919 64.8941 60.6944C64.5966 60.6944 64.4479 60.5457 64.5966 60.2482C65.0428 58.6121 65.489 56.8273 65.9352 55.1912C65.3403 55.6374 65.3403 55.6374 65.489 55.4886ZM73.0746 92.2266C73.2233 92.2266 73.3721 92.3753 73.3721 92.3753C75.7518 92.9703 78.2804 93.714 80.8089 93.8627C82.5937 94.0114 84.2298 94.0114 85.8659 93.4165C88.6919 92.5241 89.8818 88.8057 88.2457 86.4259C87.502 85.236 86.3121 84.4923 85.1222 83.7486C82.445 82.2612 79.3215 81.6663 76.3468 81.0714C75.9006 80.9226 75.9006 81.0714 75.7518 81.5176C75.4544 83.0049 75.0082 84.3436 74.7107 85.8309C74.1157 87.9132 73.6695 89.9956 73.0746 92.2266ZM85.5685 77.0555C85.8659 77.0555 86.6096 76.9067 87.2046 76.758C90.0306 76.163 91.5179 72.8908 90.0306 70.3623C89.2869 69.0237 87.9482 68.1313 86.6096 67.5363C84.5273 66.6439 82.445 66.1977 80.2139 65.6027C79.7677 65.454 79.619 65.6027 79.4703 66.0489C78.7266 69.1724 77.9829 72.1472 77.0905 75.2706C76.9417 75.5681 77.0905 75.7168 77.3879 75.8656C77.9829 76.0143 78.4291 76.163 79.024 76.3118C81.2551 76.6093 83.1887 77.0555 85.5685 77.0555Z" fill="url(#paint1_linear_24_2672)"/>
<defs>
<linearGradient id="paint0_linear_24_2672" x1="10.9835" y1="50.8008" x2="140.999" y2="110.12" gradientUnits="userSpaceOnUse">
<stop stop-color="#1F4AE3"/>
<stop offset="0.357457" stop-color="#0D142C"/>
<stop offset="0.620825" stop-color="#0D142C"/>
<stop offset="1" stop-color="#20DDB2"/>
</linearGradient>
<linearGradient id="paint1_linear_24_2672" x1="78.7441" y1="49.4834" x2="78.7441" y2="108.885" gradientUnits="userSpaceOnUse">
<stop stop-color="#20DEB2"/>
<stop offset="1" stop-color="#392DCA"/>
</linearGradient>
</defs>
</svg>
