<svg width="50" height="50" viewBox="0 0 50 50" fill="none" xmlns="http://www.w3.org/2000/svg">
<rect y="0.0176697" width="49.9881" height="49.9881" rx="24.994" fill="#FFA800"/>
<path d="M17.4399 12.9146C18.233 13.1309 19.0261 13.2751 19.8192 13.4914C20.6123 13.7077 21.4054 13.8519 22.1986 14.0682C22.4149 14.1403 22.487 14.0682 22.5591 13.8519C22.8475 12.6262 23.1359 11.4726 23.4243 10.2469C23.4964 10.0306 23.5685 9.95851 23.7848 10.0306C24.5058 10.2469 25.1547 10.3911 25.8757 10.5353C26.092 10.6074 26.092 10.6795 26.0199 10.8237C25.7315 11.9773 25.4431 13.203 25.1547 14.3566C25.1547 14.4287 25.1547 14.5008 25.0826 14.645C25.6594 14.7892 26.3083 14.9334 26.8851 15.0776C26.9572 15.0776 27.0293 14.9334 27.1014 14.8613C27.3177 13.924 27.534 13.0588 27.8224 12.1215C27.8945 11.8331 27.9666 11.5447 28.0387 11.2563C28.0387 11.1121 28.1108 11.04 28.255 11.1121C28.976 11.3284 29.697 11.4726 30.4901 11.6889C30.5622 11.6889 30.5622 11.761 30.6343 11.761C30.418 12.6983 30.2017 13.5635 29.9854 14.4287C29.9133 14.7892 29.8412 15.1497 29.697 15.5102C29.6249 15.7265 29.697 15.7986 29.9133 15.8707C30.7064 16.2312 31.4995 16.5917 32.2926 16.9522C33.0136 17.3848 33.6625 17.9616 34.1672 18.6826C34.8161 19.7641 34.8882 20.9177 34.5998 22.0713C34.3835 22.8644 34.0951 23.5854 33.5183 24.1622C33.0857 24.5948 32.5089 24.8832 31.9321 25.0995C31.86 25.0995 31.7879 25.1717 31.6437 25.1717C31.9321 25.388 32.2205 25.5322 32.5089 25.7485C33.3741 26.3974 33.9509 27.1905 34.2393 28.1999C34.3835 28.993 34.3114 29.8582 34.0951 30.6513C33.8067 31.6607 33.4462 32.5259 32.7973 33.319C32.0042 34.2563 30.9948 34.761 29.8412 34.9052C28.3271 35.1215 26.8851 34.9773 25.4431 34.761C25.2268 34.6889 25.0826 34.761 25.0105 34.9773C24.7221 36.1309 24.4337 37.3566 24.1453 38.5102C24.0732 38.7986 24.0732 38.8707 23.7127 38.7265C23.0638 38.5823 22.3428 38.366 21.6938 38.2218C21.4775 38.1497 21.4775 38.0776 21.5496 37.9334C21.838 36.7077 22.1265 35.482 22.487 34.3284C22.487 34.1842 22.5591 34.1121 22.4149 34.04C21.838 33.8958 21.2612 33.7516 20.6123 33.6074C20.4681 34.2563 20.2518 34.9052 20.1076 35.5541C19.9634 36.203 19.7471 36.8519 19.6029 37.5008C19.5308 37.645 19.5308 37.7171 19.3145 37.645C18.5935 37.4287 17.8725 37.2845 17.1515 37.1403C16.9352 37.0682 16.9352 36.9961 17.0073 36.8519C17.2957 35.6262 17.5841 34.4005 17.9446 33.2469C17.9446 33.1748 18.0167 33.1027 18.0167 32.9585C16.3584 32.5259 14.7001 32.0933 12.9697 31.6607C13.1139 31.3723 13.186 31.156 13.3302 30.8676C13.6186 30.2187 13.907 29.5698 14.1233 28.993C14.1954 28.7767 14.2675 28.7767 14.4838 28.7767C14.9885 28.9209 15.5653 29.0651 16.07 29.1372C16.6468 29.2814 17.0794 28.993 17.1515 28.4883C18.0888 24.8111 19.0261 21.134 19.8913 17.3848C20.0355 16.808 19.675 16.1591 19.0261 15.9428C18.3772 15.7265 17.7283 15.5823 17.1515 15.4381C17.0073 15.4381 16.9352 15.366 17.0073 15.2218C17.2236 14.4287 17.4399 13.5635 17.6562 12.7704C17.3678 12.9867 17.3678 12.9867 17.4399 12.9146ZM21.117 30.7234C21.1891 30.7234 21.2612 30.7955 21.2612 30.7955C22.4149 31.0839 23.6406 31.4444 24.8663 31.5165C25.7315 31.5886 26.5246 31.5886 27.3177 31.3002C28.6876 30.8676 29.2644 29.0651 28.4713 27.9115C28.1108 27.3347 27.534 26.9742 26.9572 26.6137C25.6594 25.8927 24.1453 25.6043 22.7033 25.3159C22.487 25.2438 22.487 25.3159 22.4149 25.5322C22.2707 26.2532 22.0543 26.9021 21.9101 27.6231C21.6217 28.6325 21.4054 29.6419 21.117 30.7234ZM27.1735 23.3691C27.3177 23.3691 27.6782 23.297 27.9666 23.2249C29.3365 22.9365 30.0575 21.3503 29.3365 20.1246C28.976 19.4757 28.3271 19.0431 27.6782 18.7547C26.6688 18.3221 25.6594 18.1058 24.5779 17.8174C24.3616 17.7453 24.2895 17.8174 24.2174 18.0337C23.8569 19.5478 23.4964 20.9898 23.0638 22.5039C22.9917 22.6481 23.0638 22.7202 23.208 22.7923C23.4964 22.8644 23.7127 22.9365 24.0011 23.0086C25.0826 23.1528 26.0199 23.3691 27.1735 23.3691Z" fill="white"/>
</svg>
