<svg width="37" height="36" viewBox="0 0 37 36" fill="none" xmlns="http://www.w3.org/2000/svg">
<g opacity="0.6">
<path d="M25.6088 5.32786V2.99317C25.6088 2.37957 25.1 1.87073 24.4864 1.87073C23.8727 1.87073 23.3639 2.37957 23.3639 2.99317V5.23806H13.636V2.99317C13.636 2.37957 13.1272 1.87073 12.5136 1.87073C11.9 1.87073 11.3912 2.37957 11.3912 2.99317V5.32786C7.35035 5.70201 5.38981 8.11153 5.09049 11.6884C5.06056 12.1224 5.41974 12.4816 5.83879 12.4816H31.1612C31.5952 12.4816 31.9544 12.1074 31.9095 11.6884C31.6101 8.11153 29.6496 5.70201 25.6088 5.32786Z" fill="#00FFC4"/>
<path d="M30.4727 14.7264H6.52723C5.70411 14.7264 5.03064 15.3999 5.03064 16.223V25.4421C5.03064 29.9318 7.27553 32.925 12.5136 32.925H24.4864C29.7244 32.925 31.9693 29.9318 31.9693 25.4421V16.223C31.9693 15.3999 31.2959 14.7264 30.4727 14.7264ZM14.3245 27.2529C14.2497 27.3128 14.1748 27.3876 14.1 27.4325C14.0102 27.4924 13.9204 27.5373 13.8306 27.5672C13.7408 27.6121 13.651 27.642 13.5612 27.657C13.4565 27.672 13.3667 27.6869 13.2619 27.6869C13.0674 27.6869 12.8728 27.6421 12.6932 27.5672C12.4986 27.4924 12.349 27.3876 12.1993 27.2529C11.9299 26.9686 11.7653 26.5795 11.7653 26.1904C11.7653 25.8012 11.9299 25.4121 12.1993 25.1278C12.349 24.9931 12.4986 24.8883 12.6932 24.8135C12.9626 24.6938 13.2619 24.6638 13.5612 24.7237C13.651 24.7387 13.7408 24.7686 13.8306 24.8135C13.9204 24.8434 14.0102 24.8883 14.1 24.9482C14.1748 25.008 14.2497 25.0679 14.3245 25.1278C14.5939 25.4121 14.7585 25.8012 14.7585 26.1904C14.7585 26.5795 14.5939 26.9686 14.3245 27.2529ZM14.3245 22.0149C14.0401 22.2842 13.651 22.4489 13.2619 22.4489C12.8728 22.4489 12.4837 22.2842 12.1993 22.0149C11.9299 21.7305 11.7653 21.3414 11.7653 20.9523C11.7653 20.5632 11.9299 20.174 12.1993 19.8897C12.6184 19.4706 13.2769 19.336 13.8306 19.5754C14.0252 19.6502 14.1898 19.755 14.3245 19.8897C14.5939 20.174 14.7585 20.5632 14.7585 20.9523C14.7585 21.3414 14.5939 21.7305 14.3245 22.0149ZM19.5626 27.2529C19.2782 27.5223 18.8891 27.6869 18.5 27.6869C18.1109 27.6869 17.7218 27.5223 17.4374 27.2529C17.168 26.9686 17.0034 26.5795 17.0034 26.1904C17.0034 25.8012 17.168 25.4121 17.4374 25.1278C17.9911 24.574 19.0088 24.574 19.5626 25.1278C19.832 25.4121 19.9966 25.8012 19.9966 26.1904C19.9966 26.5795 19.832 26.9686 19.5626 27.2529ZM19.5626 22.0149C19.4877 22.0747 19.4129 22.1346 19.3381 22.1944C19.2483 22.2543 19.1585 22.2992 19.0687 22.3291C18.9789 22.374 18.8891 22.404 18.7993 22.4189C18.6945 22.4339 18.6048 22.4489 18.5 22.4489C18.1109 22.4489 17.7218 22.2842 17.4374 22.0149C17.168 21.7305 17.0034 21.3414 17.0034 20.9523C17.0034 20.5632 17.168 20.174 17.4374 19.8897C17.5721 19.755 17.7367 19.6502 17.9313 19.5754C18.485 19.336 19.1435 19.4706 19.5626 19.8897C19.832 20.174 19.9966 20.5632 19.9966 20.9523C19.9966 21.3414 19.832 21.7305 19.5626 22.0149ZM24.8006 27.2529C24.5163 27.5223 24.1272 27.6869 23.7381 27.6869C23.349 27.6869 22.9598 27.5223 22.6755 27.2529C22.4061 26.9686 22.2415 26.5795 22.2415 26.1904C22.2415 25.8012 22.4061 25.4121 22.6755 25.1278C23.2292 24.574 24.2469 24.574 24.8006 25.1278C25.07 25.4121 25.2347 25.8012 25.2347 26.1904C25.2347 26.5795 25.07 26.9686 24.8006 27.2529ZM24.8006 22.0149C24.7258 22.0747 24.651 22.1346 24.5762 22.1944C24.4864 22.2543 24.3966 22.2992 24.3068 22.3291C24.217 22.374 24.1272 22.404 24.0374 22.4189C23.9326 22.4339 23.8279 22.4489 23.7381 22.4489C23.349 22.4489 22.9598 22.2842 22.6755 22.0149C22.4061 21.7305 22.2415 21.3414 22.2415 20.9523C22.2415 20.5632 22.4061 20.174 22.6755 19.8897C22.8251 19.755 22.9748 19.6502 23.1694 19.5754C23.4387 19.4557 23.7381 19.4257 24.0374 19.4856C24.1272 19.5006 24.217 19.5305 24.3068 19.5754C24.3966 19.6053 24.4864 19.6502 24.5762 19.7101C24.651 19.77 24.7258 19.8298 24.8006 19.8897C25.07 20.174 25.2347 20.5632 25.2347 20.9523C25.2347 21.3414 25.07 21.7305 24.8006 22.0149Z" fill="#00FFC4"/>
</g>
</svg>
