<svg width="50" height="51" viewBox="0 0 50 51" fill="none" xmlns="http://www.w3.org/2000/svg">
<rect width="49.9881" height="49.9881" rx="24.994" transform="matrix(1 -0.000476611 0.000119152 1 0 0.0238342)" fill="#B89A60"/>
<path d="M37.3259 20.9831H35.2165C34.5474 19.1226 33.3209 17.5137 31.7041 16.3757C30.0873 15.2377 28.1589 14.626 26.1817 14.6239H18.5302V20.9831H15.9834V23.0281H18.5302V25.4173H15.9834V27.4623H18.5302V33.8215H26.1817C28.1589 33.8194 30.0873 33.2077 31.7041 32.0697C33.3209 30.9317 34.5474 29.3228 35.2165 27.4623H37.3259V25.4173H35.705C35.8057 24.6241 35.8057 23.8213 35.705 23.0281H37.3259V20.9831ZM20.5774 16.6733H26.1817C27.6099 16.6744 29.0086 17.0797 30.2161 17.8423C31.4236 18.605 32.3905 19.6939 33.005 20.9831H20.5708L20.5774 16.6733ZM26.1817 31.7721H20.5774V27.4623H33.0117C32.3967 28.7525 31.4287 29.8421 30.2199 30.6048C29.0112 31.3676 27.611 31.7723 26.1817 31.7721V31.7721ZM33.7311 24.2227C33.7308 24.6228 33.6989 25.0222 33.6356 25.4173H20.5774V23.0281H33.6401C33.7033 23.4232 33.7353 23.8226 33.7355 24.2227H33.7311Z" fill="white"/>
</svg>
