<svg width="33" height="33" viewBox="0 0 33 33" fill="none" xmlns="http://www.w3.org/2000/svg">
<rect y="0.0078125" width="32.9921" height="32.9921" rx="16.4961" fill="#20306C"/>
<path d="M24.6354 13.841H23.2432C22.8016 12.6131 21.9921 11.5512 20.925 10.8001C19.8579 10.049 18.5851 9.6453 17.2802 9.64392H12.2302V13.841H10.5493V15.1907H12.2302V16.7676H10.5493V18.1172H12.2302V22.3143H17.2802C18.5851 22.313 19.8579 21.9092 20.925 21.1581C21.9921 20.4071 22.8016 19.3452 23.2432 18.1172H24.6354V16.7676H23.5656C23.632 16.244 23.632 15.7142 23.5656 15.1907H24.6354V13.841ZM13.5814 10.9965H17.2802C18.2228 10.9972 19.146 11.2647 19.9429 11.7681C20.7398 12.2715 21.378 12.9901 21.7836 13.841H13.577L13.5814 10.9965ZM17.2802 20.9617H13.5814V18.1172H21.788C21.3821 18.9688 20.7432 19.6879 19.9454 20.1913C19.1476 20.6948 18.2236 20.9619 17.2802 20.9617ZM22.2628 15.9791C22.2626 16.2432 22.2415 16.5068 22.1998 16.7676H13.5814V15.1907H22.2027C22.2445 15.4514 22.2655 15.7151 22.2657 15.9791H22.2628Z" fill="white"/>
</svg>
