<svg width="159" height="159" viewBox="0 0 159 159" fill="none" xmlns="http://www.w3.org/2000/svg">
<circle cx="79.2417" cy="79.2417" r="50.381" fill="#1A254B"/>
<circle cx="79.2417" cy="79.2417" r="67.4456" transform="rotate(-10.1738 79.2417 79.2417)" stroke="url(#paint0_linear_88_142)" stroke-width="1.62519"/>
<circle cx="78.4291" cy="11.7961" r="4.87558" fill="#0D142C" stroke="#132E8F" stroke-width="1.62519"/>
<circle cx="78.4291" cy="146.687" r="4.87558" fill="#0D142C" stroke="#1BB596" stroke-width="1.62519"/>
<path d="M106.377 71.0211H101.181C99.5333 66.4388 96.5123 62.4762 92.5302 59.6733C88.5481 56.8705 83.7985 55.3638 78.9289 55.3586H60.0836V71.0211H53.8109V76.0579H60.0836V81.9422H53.8109V86.979H60.0836V102.641H78.9289C83.7985 102.636 88.5481 101.13 92.5302 98.3268C96.5123 95.5239 99.5333 91.5613 101.181 86.979H106.377V81.9422H102.384C102.632 79.9886 102.632 78.0115 102.384 76.0579H106.377V71.0211ZM65.1258 60.4063H78.9289C82.4464 60.4088 85.8914 61.4071 88.8653 63.2855C91.8393 65.164 94.2208 67.8459 95.7344 71.0211H65.1094L65.1258 60.4063ZM78.9289 97.5938H65.1258V86.979H95.7508C94.236 90.1567 91.852 92.8403 88.8748 94.719C85.8977 96.5976 82.4492 97.5943 78.9289 97.5938ZM97.5226 79C97.522 79.9854 97.4433 80.9692 97.2875 81.9422H65.1258V76.0579H97.2984C97.4543 77.0309 97.5329 78.0147 97.5336 79H97.5226Z" fill="url(#paint1_linear_88_142)"/>
<defs>
<linearGradient id="paint0_linear_88_142" x1="10.9835" y1="50.8008" x2="140.999" y2="110.12" gradientUnits="userSpaceOnUse">
<stop stop-color="#1F4AE3"/>
<stop offset="0.357457" stop-color="#0D142C"/>
<stop offset="0.620825" stop-color="#0D142C"/>
<stop offset="1" stop-color="#20DDB2"/>
</linearGradient>
<linearGradient id="paint1_linear_88_142" x1="80.0937" y1="55.3586" x2="80.0937" y2="102.641" gradientUnits="userSpaceOnUse">
<stop stop-color="#28AABA"/>
<stop offset="1" stop-color="#3742C7"/>
</linearGradient>
</defs>
</svg>
