<svg width="25" height="26" viewBox="0 0 25 26" fill="none" xmlns="http://www.w3.org/2000/svg">
<rect x="0.0057373" y="0.505859" width="24.9939" height="24.9939" rx="12.497" fill="#2B3A52"/>
<path d="M18.6687 10.9855H17.614C17.2794 10.0553 16.6661 9.25082 15.8577 8.68182C15.0493 8.11282 14.0851 7.80695 13.0966 7.80591H9.27083V10.9855H7.99744V12.008H9.27083V13.2026H7.99744V14.2251H9.27083V17.4047H13.0966C14.0851 17.4036 15.0493 17.0978 15.8577 16.5288C16.6661 15.9598 17.2794 15.1553 17.614 14.2251H18.6687V13.2026H17.8582C17.9085 12.806 17.9085 12.4046 17.8582 12.008H18.6687V10.9855ZM10.2944 8.83062H13.0966C13.8107 8.83114 14.51 9.03378 15.1137 9.41512C15.7175 9.79646 16.2009 10.3409 16.5082 10.9855H10.2911L10.2944 8.83062ZM13.0966 16.38H10.2944V14.2251H16.5115C16.204 14.8702 15.7201 15.415 15.1157 15.7963C14.5113 16.1777 13.8112 16.3801 13.0966 16.38ZM16.8712 12.6053C16.8711 12.8053 16.8551 13.0051 16.8235 13.2026H10.2944V12.008H16.8257C16.8574 12.2055 16.8733 12.4052 16.8735 12.6053H16.8712Z" fill="white"/>
</svg>
