<svg width="36" height="36" viewBox="0 0 36 36" fill="none" xmlns="http://www.w3.org/2000/svg">
<g opacity="0.6">
<path d="M17.9103 3.30746L14.3035 11.7034H10.6967C10.0981 11.7034 9.51438 11.7483 8.94568 11.868L10.4423 8.27615L10.5021 8.14146L10.5919 7.902C10.6368 7.79724 10.6668 7.70745 10.7117 7.63262C12.4477 3.60678 14.3933 2.34964 17.9103 3.30746Z" fill="#00FFC4"/>
<path d="M28.0721 12.1074L28.0421 12.0924C27.1442 11.838 26.2313 11.7033 25.3034 11.7033H15.9347L19.302 3.87612L19.3469 3.77136C19.5565 3.84619 19.7809 3.95095 20.0054 4.02578L23.3129 5.41762C25.1537 6.18088 26.4408 6.97407 27.234 7.93189C27.3687 8.11149 27.4884 8.27611 27.6081 8.47067C27.7428 8.68019 27.8476 8.88971 27.9074 9.1142C27.9673 9.2489 28.0122 9.36862 28.0421 9.50332C28.2666 10.2666 28.2816 11.1346 28.0721 12.1074Z" fill="#00FFC4"/>
<path d="M18.7782 26.4298H19.1523C19.6013 26.4298 19.9755 26.0257 19.9755 25.5318C19.9755 24.9033 19.7959 24.8135 19.4068 24.6638L18.7782 24.4393V26.4298Z" fill="#00FFC4"/>
<path d="M27.4136 14.2476C26.7402 14.053 26.0368 13.9482 25.3034 13.9482H10.6967C9.67901 13.9482 8.72119 14.1428 7.82323 14.5319C5.21916 15.6544 3.39331 18.2435 3.39331 21.2516V24.17C3.39331 24.5292 3.42324 24.8734 3.46814 25.2326C3.79739 29.9917 6.3416 32.5359 11.1008 32.8502C11.445 32.8951 11.7892 32.9251 12.1634 32.9251H23.8368C29.3742 32.9251 32.2925 30.2911 32.5769 25.053C32.5919 24.7686 32.6068 24.4693 32.6068 24.17V21.2516C32.6068 17.9441 30.4068 15.1605 27.4136 14.2476ZM19.9157 23.1972C20.6041 23.4367 21.532 23.9455 21.532 25.5319C21.532 26.8938 20.4695 27.9863 19.1524 27.9863H18.7783V28.3155C18.7783 28.7496 18.4341 29.0938 18.0001 29.0938C17.5661 29.0938 17.2218 28.7496 17.2218 28.3155V27.9863H17.0871C15.6504 27.9863 14.4681 26.7741 14.4681 25.2775C14.4681 24.8434 14.8123 24.4992 15.2463 24.4992C15.6803 24.4992 16.0246 24.8434 16.0246 25.2775C16.0246 25.906 16.5035 26.4298 17.0871 26.4298H17.2218V23.9006L16.0844 23.4965C15.396 23.2571 14.4681 22.7482 14.4681 21.1618C14.4681 19.7999 15.5307 18.7074 16.8477 18.7074H17.2218V18.3782C17.2218 17.9441 17.5661 17.5999 18.0001 17.5999C18.4341 17.5999 18.7783 17.9441 18.7783 18.3782V18.7074H18.913C20.3497 18.7074 21.532 19.9197 21.532 21.4162C21.532 21.8503 21.1878 22.1945 20.7538 22.1945C20.3198 22.1945 19.9756 21.8503 19.9756 21.4162C19.9756 20.7877 19.4967 20.2639 18.913 20.2639H18.7783V22.7931L19.9157 23.1972Z" fill="#00FFC4"/>
<path d="M16.0245 21.1619C16.0245 21.7904 16.2041 21.8802 16.5932 22.0299L17.2218 22.2544V20.2639H16.8477C16.3837 20.2639 16.0245 20.668 16.0245 21.1619Z" fill="#00FFC4"/>
</g>
</svg>
