<svg width="37" height="36" viewBox="0 0 37 36" fill="none" xmlns="http://www.w3.org/2000/svg">
<g opacity="0.6">
<path d="M3.53406 17.151V24.6339C3.53406 28.0611 6.30276 30.8298 9.72996 30.8298H27.2551C30.6823 30.8298 33.4659 28.0462 33.4659 24.619V17.151C33.4659 16.1482 32.6578 15.3401 31.6551 15.3401H5.34494C4.34222 15.3401 3.53406 16.1482 3.53406 17.151ZM12.5136 25.8162H9.52043C8.90683 25.8162 8.39799 25.3074 8.39799 24.6938C8.39799 24.0802 8.90683 23.5714 9.52043 23.5714H12.5136C13.1272 23.5714 13.6361 24.0802 13.6361 24.6938C13.6361 25.3074 13.1272 25.8162 12.5136 25.8162ZM22.2415 25.8162H16.2551C15.6415 25.8162 15.1327 25.3074 15.1327 24.6938C15.1327 24.0802 15.6415 23.5714 16.2551 23.5714H22.2415C22.8551 23.5714 23.3639 24.0802 23.3639 24.6938C23.3639 25.3074 22.8551 25.8162 22.2415 25.8162Z" fill="#00FFC4"/>
<path d="M20.7449 6.89926V11.2843C20.7449 12.287 19.9367 13.0952 18.934 13.0952H5.34494C4.32725 13.0952 3.53406 12.2571 3.53406 11.2543C3.54902 9.5632 4.22249 8.0217 5.34494 6.89926C6.46738 5.77681 8.02384 5.08838 9.72996 5.08838H18.934C19.9367 5.08838 20.7449 5.89654 20.7449 6.89926Z" fill="#00FFC4"/>
<path d="M30.4278 2.99316H26.0278C24.1272 2.99316 22.9897 4.13058 22.9897 6.03125V10.4312C22.9897 12.3319 24.1272 13.4693 26.0278 13.4693H30.4278C32.3285 13.4693 33.4659 12.3319 33.4659 10.4312V6.03125C33.4659 4.13058 32.3285 2.99316 30.4278 2.99316ZM31.8346 8.87478C31.685 9.02444 31.4605 9.1292 31.221 9.14417H29.1108L29.1258 11.2244C29.1108 11.4789 29.021 11.6884 28.8414 11.868C28.6918 12.0176 28.4673 12.1224 28.2278 12.1224C27.734 12.1224 27.3299 11.7183 27.3299 11.2244V9.1292L25.2346 9.14417C24.7408 9.14417 24.3367 8.72512 24.3367 8.23124C24.3367 7.73737 24.7408 7.33329 25.2346 7.33329L27.3299 7.34825V5.25302C27.3299 4.75915 27.734 4.3401 28.2278 4.3401C28.7217 4.3401 29.1258 4.75915 29.1258 5.25302L29.1108 7.33329H31.221C31.7149 7.33329 32.119 7.73737 32.119 8.23124C32.104 8.48567 31.9992 8.69519 31.8346 8.87478Z" fill="#00FFC4"/>
</g>
</svg>
