<svg width="59" height="56" viewBox="0 0 59 56" fill="none" xmlns="http://www.w3.org/2000/svg">
<path d="M13.5692 26.88C11.1067 26.88 8.83256 26.2827 6.74692 25.088C4.68641 23.8933 3.04051 22.2631 1.80923 20.1973C0.603077 18.1316 0 15.8791 0 13.44C0 11.0507 0.615641 8.82311 1.84692 6.75733C3.10333 4.69155 4.77436 3.04889 6.86 1.82933C8.94564 0.609777 11.1821 0 13.5692 0C16.0318 0 18.2933 0.597333 20.3538 1.792C22.4395 2.98667 24.0854 4.61689 25.2915 6.68267C26.5228 8.74844 27.1385 11.0009 27.1385 13.44C27.1385 15.8791 26.5228 18.1316 25.2915 20.1973C24.0854 22.2631 22.4395 23.8933 20.3538 25.088C18.2933 26.2827 16.0318 26.88 13.5692 26.88ZM56.5385 7.91467L9.04615 54.88L2.26154 48.16L49.7538 1.12L56.5385 7.91467ZM13.5692 18.2933C14.4236 18.2933 15.2277 18.0693 15.9815 17.6213C16.7354 17.1733 17.3385 16.576 17.7908 15.8293C18.2431 15.0827 18.4692 14.2862 18.4692 13.44C18.4692 12.5938 18.2431 11.7973 17.7908 11.0507C17.3385 10.304 16.7354 9.70667 15.9815 9.25867C15.2277 8.81067 14.4236 8.58667 13.5692 8.58667C12.7149 8.58667 11.9108 8.81067 11.1569 9.25867C10.4031 9.70667 9.8 10.304 9.34769 11.0507C8.89538 11.7973 8.66923 12.5938 8.66923 13.44C8.66923 14.2862 8.89538 15.0827 9.34769 15.8293C9.8 16.576 10.4031 17.1733 11.1569 17.6213C11.9108 18.0693 12.7149 18.2933 13.5692 18.2933ZM45.2308 56C42.7682 56 40.4941 55.4027 38.4085 54.208C36.3479 53.0133 34.702 51.3831 33.4708 49.3173C32.2646 47.2516 31.6615 44.9991 31.6615 42.56C31.6615 40.1707 32.2772 37.9431 33.5085 35.8773C34.7649 33.8116 36.4359 32.1689 38.5215 30.9493C40.6072 29.7298 42.8436 29.12 45.2308 29.12C47.6933 29.12 49.9549 29.7173 52.0154 30.912C54.101 32.1067 55.7469 33.7369 56.9531 35.8027C58.1844 37.8684 58.8 40.1209 58.8 42.56C58.8 44.9991 58.1844 47.2516 56.9531 49.3173C55.7469 51.3831 54.101 53.0133 52.0154 54.208C49.9549 55.4027 47.6933 56 45.2308 56ZM45.2308 47.4133C46.0851 47.4133 46.8892 47.1893 47.6431 46.7413C48.3969 46.2933 49 45.696 49.4523 44.9493C49.9046 44.2027 50.1308 43.4062 50.1308 42.56C50.1308 41.7138 49.9046 40.9173 49.4523 40.1707C49 39.424 48.3969 38.8267 47.6431 38.3787C46.8892 37.9307 46.0851 37.7067 45.2308 37.7067C44.3764 37.7067 43.5723 37.9307 42.8185 38.3787C42.0646 38.8267 41.4615 39.424 41.0092 40.1707C40.5569 40.9173 40.3308 41.7138 40.3308 42.56C40.3308 43.4062 40.5569 44.2027 41.0092 44.9493C41.4615 45.696 42.0646 46.2933 42.8185 46.7413C43.5723 47.1893 44.3764 47.4133 45.2308 47.4133Z" fill="url(#paint0_linear_93_445)"/>
<defs>
<linearGradient id="paint0_linear_93_445" x1="29.4" y1="0" x2="29.4" y2="56" gradientUnits="userSpaceOnUse">
<stop stop-color="#204FE3"/>
<stop offset="1" stop-color="#122C7D"/>
</linearGradient>
</defs>
</svg>
