<svg width="52" height="52" viewBox="0 0 52 52" fill="none" xmlns="http://www.w3.org/2000/svg">
<circle cx="26" cy="26" r="26" fill="#1B264B"/>
<path d="M23.0799 31.8107C23.0799 31.0197 23.1663 30.2461 23.3391 29.4899C23.5234 28.7221 23.7941 28.03 24.1512 27.4134C24.3931 26.9132 24.6465 26.5119 24.9114 26.2094C25.1879 25.9069 25.5853 25.5347 26.1037 25.0926C26.1843 25.0228 26.3974 24.8367 26.743 24.5342C27.0886 24.2201 27.4572 23.8537 27.8488 23.4349C28.2981 22.9347 28.6033 22.4403 28.7646 21.9517C28.9374 21.4515 29.0238 20.8756 29.0238 20.2242C29.0238 19.5029 28.874 18.9445 28.5745 18.549C28.3096 18.1767 27.9525 17.9034 27.5032 17.7289C27.0655 17.5544 26.5702 17.4671 26.0173 17.4671C25.6026 17.4671 25.2109 17.5195 24.8423 17.6242C24.4737 17.7172 24.1627 17.8626 23.9093 18.0604C23.5868 18.3047 23.3449 18.613 23.1836 18.9852C23.0223 19.3575 22.9532 19.7705 22.9762 20.2242H18C18.1382 18.9678 18.4896 17.8277 19.054 16.804C19.6299 15.7687 20.3614 14.9544 21.2484 14.3611C21.905 13.9306 22.6307 13.5991 23.4255 13.3664C24.2203 13.1221 25.0151 13 25.8099 13C27.1922 13 28.4536 13.2152 29.594 13.6456C30.7459 14.0761 31.6847 14.745 32.4104 15.6523C32.9057 16.2456 33.2916 16.9378 33.568 17.7289C33.856 18.5083 34 19.2935 34 20.0846C34 21.2711 33.7408 22.3821 33.2225 23.4174C32.7041 24.4412 31.9842 25.4474 31.0626 26.4362L30.1814 27.3611C29.8934 27.6519 29.6228 27.9427 29.3693 28.2336C29.1159 28.5128 28.9086 28.7745 28.7473 29.0188C28.4363 29.5306 28.2405 29.9553 28.1598 30.2926C28.0907 30.6183 28.0562 31.1244 28.0562 31.8107H23.0799ZM25.5853 39C25.067 39 24.6004 38.8779 24.1857 38.6336C23.7711 38.3893 23.4428 38.0577 23.2009 37.6389C22.959 37.2201 22.838 36.7548 22.838 36.243C22.838 35.7311 22.959 35.2658 23.2009 34.847C23.4428 34.4282 23.7711 34.0966 24.1857 33.8523C24.6004 33.6081 25.067 33.4859 25.5853 33.4859C26.1037 33.4859 26.5702 33.6081 26.9849 33.8523C27.4111 34.0966 27.7394 34.4282 27.9698 34.847C28.2117 35.2658 28.3326 35.7311 28.3326 36.243C28.3326 36.7548 28.2117 37.2201 27.9698 37.6389C27.7394 38.0577 27.4111 38.3893 26.9849 38.6336C26.5702 38.8779 26.1037 39 25.5853 39Z" fill="#36467E"/>
</svg>
