<svg width="37" height="36" viewBox="0 0 37 36" fill="none" xmlns="http://www.w3.org/2000/svg">
<g opacity="0.6">
<path d="M18.5 20.9523C11.0021 20.9523 4.896 25.9808 4.896 32.1767C4.896 32.5958 5.22525 32.925 5.64429 32.925H31.3557C31.7748 32.925 32.104 32.5958 32.104 32.1767C32.104 25.9808 25.9979 20.9523 18.5 20.9523Z" fill="#00FFC4"/>
<path d="M18.5001 2.99316C16.7341 2.99316 15.1178 3.60677 13.8307 4.63942C12.1096 6.00131 11.0171 8.11151 11.0171 10.4761C11.0171 11.8829 11.4062 13.1999 12.1096 14.3224C13.3967 16.4924 15.7613 17.9591 18.5001 17.9591C20.3858 17.9591 22.1068 17.2707 23.4238 16.0883C24.0075 15.5945 24.5164 14.9958 24.9055 14.3224C25.5939 13.1999 25.983 11.8829 25.983 10.4761C25.983 6.34553 22.6306 2.99316 18.5001 2.99316ZM22.3762 9.66797L18.3803 13.3496C18.1109 13.604 17.7667 13.7237 17.4225 13.7237C17.0633 13.7237 16.7041 13.589 16.4348 13.3197L14.5939 11.4639C14.0402 10.9101 14.0402 10.0271 14.5939 9.47341C15.1477 8.91967 16.0307 8.91967 16.5844 9.47341L17.4674 10.3564L20.4756 7.5877C21.0443 7.0639 21.9272 7.09383 22.4511 7.66253C22.9749 8.2462 22.9449 9.14416 22.3762 9.66797Z" fill="#00FFC4"/>
</g>
</svg>
