<svg width="1216" height="182" viewBox="0 0 1216 182" fill="none" xmlns="http://www.w3.org/2000/svg">
<path d="M96.2879 35.9633C107.893 18.3626 113.695 9.56231 122.574 4.78116C131.454 0 141.995 0 163.077 0H1167.71C1188.99 0 1199.62 0 1203.3 6.8367C1206.98 13.6734 1201.13 22.5529 1189.42 40.3119L1119.71 146.037C1108.11 163.637 1102.3 172.438 1093.43 177.219C1084.55 182 1074.01 182 1052.92 182H48.2858C27.0139 182 16.378 182 12.6967 175.163C9.01543 168.327 14.8701 159.447 26.5793 141.688L96.2879 35.9633Z" fill="#0D142C"/>
<path d="M97.5402 36.789C103.358 27.9656 107.666 21.4343 111.623 16.5038C115.561 11.5976 119.084 8.3643 123.286 6.10186C127.487 3.83942 132.126 2.67779 138.39 2.09111C144.684 1.50151 152.508 1.5 163.077 1.5H1167.71C1178.4 1.5 1186.24 1.50399 1191.89 2.33845C1197.52 3.17249 1200.49 4.77154 1201.98 7.54785C1203.48 10.3242 1203.18 13.6778 1200.77 18.8449C1198.36 24.0145 1194.05 30.5642 1188.17 39.4862L1118.46 145.211C1112.64 154.034 1108.33 160.566 1104.38 165.496C1100.44 170.402 1096.92 173.636 1092.71 175.898C1088.51 178.161 1083.87 179.322 1077.61 179.909C1071.32 180.498 1063.49 180.5 1052.92 180.5H48.2858C37.5989 180.5 29.7563 180.496 24.1143 179.662C18.475 178.828 15.5124 177.228 14.0174 174.452C12.5225 171.676 12.8183 168.322 15.2262 163.155C17.6352 157.985 21.9489 151.436 27.8316 142.514L97.5402 36.789Z" stroke="url(#paint0_linear_382_933)" stroke-width="3"/>
<defs>
<linearGradient id="paint0_linear_382_933" x1="30" y1="167.5" x2="1201.5" y2="12.5" gradientUnits="userSpaceOnUse">
<stop stop-color="#204FE3"/>
<stop offset="0.280507" stop-color="#000518"/>
<stop offset="0.707974" stop-color="#000518"/>
<stop offset="1" stop-color="#229ED9"/>
</linearGradient>
</defs>
</svg>
