<svg width="159" height="159" viewBox="0 0 159 159" fill="none" xmlns="http://www.w3.org/2000/svg">
<circle cx="79.2417" cy="79.2417" r="50.381" fill="#1A254B"/>
<circle cx="79.2417" cy="79.2417" r="67.4456" transform="rotate(-10.1738 79.2417 79.2417)" stroke="url(#paint0_linear_88_141)" stroke-width="1.62519"/>
<circle cx="78.4291" cy="11.7961" r="4.87558" fill="#0D142C" stroke="#132E8F" stroke-width="1.62519"/>
<circle cx="78.4291" cy="146.687" r="4.87558" fill="#0D142C" stroke="#1BB596" stroke-width="1.62519"/>
<path d="M94.872 60.7823L52 53L74.5619 109L106 71.2193L94.872 60.7823ZM94.1829 64.2105L100.742 70.3608L82.8054 73.5634L94.1829 64.2105ZM78.9079 72.9217L60.0029 57.4567L90.9033 63.0649L78.9079 72.9217ZM77.5622 75.6584L74.4787 100.799L57.8581 59.5341L77.5622 75.6555V75.6584ZM80.414 76.9916L100.279 73.4462L77.4939 100.822L80.414 76.9916Z" fill="url(#paint1_linear_88_141)"/>
<defs>
<linearGradient id="paint0_linear_88_141" x1="10.9835" y1="50.8008" x2="140.999" y2="110.12" gradientUnits="userSpaceOnUse">
<stop stop-color="#1F4AE3"/>
<stop offset="0.357457" stop-color="#0D142C"/>
<stop offset="0.620825" stop-color="#0D142C"/>
<stop offset="1" stop-color="#20DDB2"/>
</linearGradient>
<linearGradient id="paint1_linear_88_141" x1="79" y1="53" x2="79" y2="109" gradientUnits="userSpaceOnUse">
<stop stop-color="#20DEB2"/>
<stop offset="1" stop-color="#204FE3"/>
</linearGradient>
</defs>
</svg>
