<svg width="25" height="26" viewBox="0 0 25 26" fill="none" xmlns="http://www.w3.org/2000/svg">
<rect x="0.00585938" y="0.505859" width="24.9939" height="24.9939" rx="12.497" fill="#2B3A52"/>
<path fill-rule="evenodd" clip-rule="evenodd" d="M13.8385 13.4572C13.759 13.4632 13.348 13.4879 12.4315 13.4879C11.7024 13.4879 11.1848 13.4659 11.0032 13.4572C8.18589 13.3322 6.08299 12.8378 6.08299 12.2459C6.08299 11.6539 8.18589 11.1602 11.0032 11.0333V12.9648C11.1875 12.9781 11.715 13.0095 12.4441 13.0095C13.3189 13.0095 13.757 12.9728 13.8358 12.9655V11.0346C16.6472 11.1609 18.7455 11.6553 18.7455 12.2459C18.7455 12.8365 16.6479 13.3309 13.8358 13.4565L13.8385 13.4572ZM13.8385 10.8348V9.10642H17.762V6.4707H7.07976V9.10642H11.0026V10.8342C7.81409 10.9818 5.41626 11.6185 5.41626 12.3815C5.41626 13.1445 7.81409 13.7806 11.0026 13.9289V19.4676H13.8378V13.9269C17.019 13.7792 19.4129 13.1432 19.4129 12.3809C19.4129 11.6185 17.021 10.9825 13.8378 10.8342L13.8385 10.8348Z" fill="white"/>
</svg>
