<svg width="33" height="33" viewBox="0 0 33 33" fill="none" xmlns="http://www.w3.org/2000/svg">
<rect y="0.0078125" width="32.9921" height="32.9921" rx="16.4961" fill="#20306C"/>
<path fill-rule="evenodd" clip-rule="evenodd" d="M18.259 17.1035C18.154 17.1115 17.6116 17.1441 16.4017 17.1441C15.4394 17.1441 14.7561 17.115 14.5164 17.1035C10.7975 16.9386 8.02168 16.286 8.02168 15.5046C8.02168 14.7233 10.7975 14.0715 14.5164 13.904V16.4536C14.7596 16.4712 15.456 16.5127 16.4183 16.5127C17.5731 16.5127 18.1514 16.4642 18.2555 16.4545V13.9057C21.9665 14.0724 24.7362 14.725 24.7362 15.5046C24.7362 16.2842 21.9674 16.9369 18.2555 17.1027L18.259 17.1035ZM18.259 13.642V11.3605H23.438V7.88135H9.33743V11.3605H14.5156V13.6411C10.3067 13.836 7.1416 14.6765 7.1416 15.6837C7.1416 16.6908 10.3067 17.5304 14.5156 17.7262V25.0373H18.2581V17.7235C22.4573 17.5286 25.6172 16.689 25.6172 15.6828C25.6172 14.6765 22.4599 13.8369 18.2581 13.6411L18.259 13.642Z" fill="white"/>
</svg>
