<svg width="21" height="21" viewBox="0 0 21 21" fill="none" xmlns="http://www.w3.org/2000/svg">
<path d="M4.72241 16.9075C4.72241 16.9075 7.70389 15.6297 8.55575 14.7778C9.4076 13.926 6.85204 13.926 6.85204 9.66673C6.85204 5.40747 10.2594 5.40747 10.2594 5.40747C10.2594 5.40747 13.6669 5.40747 13.6669 9.66673C13.6669 13.926 11.1113 13.926 11.9632 14.7778C12.815 15.6297 15.7965 16.9075 15.7965 16.9075" stroke="#20DEB2" stroke-width="0.851852" stroke-linecap="round"/>
<path fill-rule="evenodd" clip-rule="evenodd" d="M10.2592 19.037C14.9639 19.037 18.7778 15.2232 18.7778 10.5185C18.7778 5.81387 14.9639 2 10.2592 2C5.55459 2 1.74072 5.81387 1.74072 10.5185C1.74072 15.2232 5.55459 19.037 10.2592 19.037Z" stroke="#20DEB2" stroke-width="0.851852"/>
</svg>
