<svg width="25" height="25" viewBox="0 0 25 25" fill="none" xmlns="http://www.w3.org/2000/svg">
<path d="M8.03711 12.5371L10.5371 15.0371L16.0371 9.53711" stroke="#20DEB2" stroke-linecap="round"/>
<path d="M12.0371 22.0371C13.2734 22.0371 14.335 21.2893 14.7943 20.2214C14.9566 19.8439 15.4929 19.6218 15.8746 19.7739C16.9546 20.2043 18.234 19.9824 19.1082 19.1082C19.9823 18.234 20.2042 16.9546 19.7739 15.8747C19.6218 15.4929 19.8439 14.9567 20.2214 14.7943C21.2893 14.335 22.0371 13.2734 22.0371 12.0371C22.0371 10.8009 21.2893 9.73925 20.2214 9.27993C19.8439 9.11757 19.6218 8.5813 19.7739 8.19957C20.2043 7.11965 19.9824 5.84022 19.1082 4.96605C18.234 4.09188 16.9546 3.86997 15.8747 4.30032C15.4929 4.45245 14.9567 4.23031 14.7943 3.85281C14.335 2.78489 13.2734 2.03711 12.0371 2.03711C10.8009 2.03711 9.73925 2.78488 9.27993 3.8528C9.11757 4.23029 8.5813 4.45242 8.19957 4.3003C7.11965 3.86994 5.84022 4.09185 4.96605 4.96602C4.09188 5.84019 3.86997 7.11962 4.30032 8.19954C4.45245 8.58128 4.23031 9.11757 3.85281 9.27993C2.78489 9.73924 2.03711 10.8008 2.03711 12.0371C2.03711 13.2734 2.78488 14.335 3.8528 14.7943C4.23029 14.9566 4.45242 15.4929 4.3003 15.8746C3.86995 16.9546 4.09185 18.234 4.96602 19.1082C5.84019 19.9823 7.11962 20.2042 8.19954 19.7739C8.58127 19.6218 9.11757 19.8439 9.27993 20.2214C9.73924 21.2893 10.8008 22.0371 12.0371 22.0371Z" stroke="#20DEB2" stroke-linecap="round"/>
</svg>
