<svg width="93" height="93" viewBox="0 0 93 93" fill="none" xmlns="http://www.w3.org/2000/svg">
<path d="M81.375 34.8751H41.0944C42.1227 33.1106 42.6643 31.1048 42.6637 29.0626H69.9825C71.0969 29.0626 72.2004 28.8431 73.23 28.4166C74.2596 27.9901 75.1952 27.3651 75.9832 26.577C76.7712 25.789 77.3963 24.8535 77.8228 23.8239C78.2493 22.7943 78.4688 21.6908 78.4688 20.5763C78.4675 20.1825 78.3829 19.7934 78.2204 19.4346C78.058 19.0758 77.8214 18.7555 77.5263 18.4947C77.2312 18.2339 76.8842 18.0385 76.5081 17.9214C76.1321 17.8044 75.7355 17.7682 75.3445 17.8154L65.812 18.8907C66.054 17.1301 65.889 15.3375 65.3299 13.6506C64.7708 11.9637 63.8323 10.4274 62.5866 9.15988C61.341 7.89235 59.8213 6.92728 58.1444 6.33885C56.4675 5.75041 54.678 5.55428 52.9135 5.76552C51.1489 5.97676 49.4563 6.58976 47.9656 7.55739C46.475 8.52502 45.2261 9.82153 44.3148 11.3473C43.4036 12.873 42.8543 14.5874 42.7091 16.3586C42.5639 18.1298 42.8268 19.9107 43.4775 21.5645L40.2806 21.9423C39.0491 20.3249 37.4149 19.0588 35.5412 18.2702C33.6675 17.4817 31.6198 17.1982 29.6023 17.4482C27.5848 17.6982 25.6682 18.4728 24.0436 19.6949C22.4191 20.9169 21.1433 22.5436 20.3438 24.4126L11.7413 25.4443C10.1026 25.6561 8.59712 26.4573 7.50606 27.6981C6.41499 28.9389 5.81299 30.5345 5.8125 32.1868V76.7687C5.8125 79.532 6.9102 82.182 8.86413 84.136C10.8181 86.0899 13.4681 87.1876 16.2314 87.1876H76.7686C79.5319 87.1876 82.1819 86.0899 84.1359 84.136C86.0898 82.182 87.1875 79.532 87.1875 76.7687V40.6876C87.1875 39.146 86.5751 37.6676 85.4851 36.5775C84.395 35.4875 82.9166 34.8751 81.375 34.8751ZM48.4762 17.4376C48.4693 16.0562 48.9546 14.7175 49.8452 13.6614C50.7357 12.6053 51.9733 11.901 53.336 11.6745C54.6988 11.4481 56.0976 11.7145 57.2818 12.4258C58.466 13.1372 59.3581 14.247 59.7983 15.5565C60.2384 16.8659 60.1978 18.2893 59.6837 19.5715C59.1696 20.8537 58.2157 21.9109 56.9928 22.5536C55.77 23.1963 54.3583 23.3824 53.0106 23.0787C51.663 22.7749 50.4676 22.0012 49.6387 20.896C48.8901 19.8979 48.4825 18.6853 48.4762 17.4376ZM31.0388 23.2501C32.1884 23.2501 33.3121 23.591 34.268 24.2297C35.2239 24.8684 35.9689 25.7762 36.4088 26.8382C36.8487 27.9003 36.9638 29.069 36.7396 30.1966C36.5153 31.3241 35.9617 32.3598 35.1488 33.1726C34.3359 33.9855 33.3002 34.5391 32.1727 34.7634C31.0452 34.9877 29.8765 34.8726 28.8144 34.4326C27.7523 33.9927 26.8445 33.2477 26.2058 32.2918C25.5671 31.336 25.2263 30.2122 25.2263 29.0626C25.2263 27.521 25.8386 26.0426 26.9287 24.9525C28.0187 23.8625 29.4972 23.2501 31.0388 23.2501ZM14.6911 34.8751C13.9767 34.903 13.2758 34.6755 12.714 34.2335C12.1521 33.7914 11.7661 33.1637 11.625 32.4629C11.5524 32.0421 11.5733 31.6104 11.6865 31.1986C11.7996 30.7867 12.0022 30.4049 12.2796 30.0803C12.5571 29.7556 12.9027 29.4961 13.2919 29.3202C13.6811 29.1443 14.1042 29.0564 14.5312 29.0626H19.4137C19.4132 31.1048 19.9548 33.1106 20.9831 34.8751H14.6911ZM69.75 66.8438C68.6004 66.8438 67.4766 66.5029 66.5207 65.8643C65.5649 65.2256 64.8199 64.3178 64.38 63.2557C63.94 62.1936 63.8249 61.0249 64.0492 59.8974C64.2735 58.7699 64.827 57.7342 65.6399 56.9213C66.4528 56.1084 67.4885 55.5548 68.616 55.3305C69.7436 55.1063 70.9123 55.2214 71.9743 55.6613C73.0364 56.1012 73.9442 56.8462 74.5829 57.8021C75.2216 58.7579 75.5625 59.8817 75.5625 61.0313C75.5625 62.5729 74.9501 64.0513 73.8601 65.1414C72.77 66.2315 71.2916 66.8438 69.75 66.8438Z" fill="url(#paint0_linear_196_443)"/>
<defs>
<linearGradient id="paint0_linear_196_443" x1="46.5" y1="5.68311" x2="46.5" y2="87.1876" gradientUnits="userSpaceOnUse">
<stop stop-color="#0072FF"/>
<stop offset="1" stop-color="#20DDB2"/>
</linearGradient>
</defs>
</svg>
